<svg width="143" height="46" viewBox="0 0 143 46" fill="none" xmlns="http://www.w3.org/2000/svg">
<path fill-rule="evenodd" clip-rule="evenodd" d="M36.2339 11.9463C36.2339 11.6225 36.2196 11.1718 36.1874 10.657C36.165 10.2995 36.5997 10.1193 36.8037 10.4095C39.0985 13.6732 40.4503 17.6835 40.4503 22.0211C40.4503 25.8105 39.4181 29.3484 37.6282 32.3577C37.3206 32.8749 36.715 33.1047 36.1447 32.9535L26.8749 30.4953C26.5728 30.4152 26.5134 29.9949 26.7754 29.8206C26.8524 29.7694 26.9289 29.7177 27.0052 29.6654C27.8613 29.0791 28.6725 28.4287 29.4322 27.7209C33.6094 23.8296 36.2339 18.2036 36.2339 11.9463Z" fill="#00A63E"/>
<path d="M13.6193 19.3202C13.5429 19.0024 13.5047 18.8435 13.5032 18.6747C13.5018 18.5337 13.5255 18.3678 13.5661 18.2332C13.6148 18.072 13.6877 17.9451 13.8335 17.6913C17.202 11.8293 23.5765 7.62117 30.6342 7.62117C31.6892 7.62118 32.7234 7.70867 33.7309 7.87645C33.9816 7.9182 34.1069 7.93907 34.2221 8.01008C34.3166 8.06832 34.4127 8.16854 34.468 8.26661C34.5354 8.38617 34.5538 8.51412 34.5906 8.77C34.7612 9.95554 34.8343 11.2474 34.8343 11.9463C34.8343 19.2567 30.7601 25.9654 25.0173 29.4293C24.7699 29.5785 24.6462 29.6531 24.4884 29.7026C24.3568 29.7438 24.1939 29.7672 24.0565 29.7647C23.8915 29.7618 23.7369 29.7207 23.4276 29.6387L17.5422 28.0776C16.836 27.8903 16.483 27.7967 16.196 27.6052C15.9422 27.4358 15.7268 27.212 15.5648 26.949C15.3816 26.6517 15.294 26.2873 15.1188 25.5583L13.6193 19.3202Z" fill="#00A63E"/>
<path fill-rule="evenodd" clip-rule="evenodd" d="M21.2007 2.19757C25.1725 2.19756 28.8616 3.43546 31.9269 5.55805C32.2206 5.76145 32.0486 6.22525 31.6951 6.20681C31.3437 6.18848 30.99 6.1792 30.6343 6.1792C23.4071 6.17922 17.047 10.0027 13.3574 15.7924C13.1867 16.0604 12.78 15.9973 12.7034 15.6867L10.484 6.68957C10.3402 6.10652 10.5604 5.4884 11.0566 5.17088C14.0018 3.28619 17.4763 2.19758 21.2007 2.19757Z" fill="#00A63E"/>
<path fill-rule="evenodd" clip-rule="evenodd" d="M3.09956 33.0483C2.97762 32.5796 2.91665 32.3453 2.92825 32.1173C2.93852 31.9155 2.98986 31.7182 3.07893 31.5382C3.17959 31.3347 3.34617 31.1632 3.67931 30.8201L6.55152 27.8624C6.77659 27.6306 6.88912 27.5148 7.00145 27.4964C7.09942 27.4805 7.19937 27.508 7.27646 27.5723C7.36484 27.646 7.40603 27.8043 7.48841 28.1209L8.73318 32.9046C8.77891 33.0804 8.80177 33.1682 8.79742 33.2537C8.79357 33.3294 8.77432 33.4034 8.74092 33.4709C8.70317 33.5472 8.6407 33.6115 8.51577 33.7402L5.07199 37.2865C4.84692 37.5183 4.73438 37.6342 4.62206 37.6525C4.52409 37.6685 4.42413 37.6409 4.34705 37.5766C4.25867 37.5029 4.21748 37.3446 4.1351 37.028L3.09956 33.0483Z" fill="#225438"/>
<path fill-rule="evenodd" clip-rule="evenodd" d="M12.416 39.8169C12.0828 40.16 11.9163 40.3315 11.7187 40.4352C11.5439 40.5269 11.3523 40.5798 11.1564 40.5904C10.9349 40.6023 10.7074 40.5395 10.2523 40.414L6.27009 39.3151C5.96263 39.2303 5.80891 39.1879 5.73734 39.0969C5.67491 39.0175 5.64813 38.9146 5.66365 38.8137C5.68144 38.698 5.79398 38.5821 6.01905 38.3504L9.46295 34.8039C9.58788 34.6752 9.65035 34.6109 9.72444 34.572C9.78999 34.5377 9.86184 34.5178 9.93531 34.5139C10.0184 34.5094 10.1037 34.5329 10.2743 34.58L15.0372 35.8943C15.3447 35.9792 15.4984 36.0216 15.57 36.1126C15.6324 36.192 15.6592 36.2949 15.6436 36.3958C15.6258 36.5115 15.5133 36.6274 15.2882 36.8591L12.416 39.8169Z" fill="#00A63E"/>
<path fill-rule="evenodd" clip-rule="evenodd" d="M13.4508 28.1241C13.9059 28.2497 14.1334 28.3125 14.3194 28.4368C14.484 28.5469 14.6242 28.6913 14.7311 28.8607C14.8518 29.0522 14.9128 29.2866 15.0347 29.7552L16.0781 33.7651C16.1605 34.0817 16.2017 34.24 16.1609 34.3493C16.1254 34.4447 16.0522 34.52 15.9596 34.5567C15.8534 34.5986 15.6997 34.5562 15.3923 34.4714L10.688 33.1735C10.5173 33.1264 10.432 33.1028 10.3623 33.0562C10.3006 33.0149 10.248 32.9608 10.2079 32.8972C10.1626 32.8254 10.1398 32.7376 10.094 32.5618L8.84128 27.7478C8.75889 27.4311 8.71769 27.2728 8.75844 27.1635C8.79399 27.0681 8.86716 26.9928 8.95977 26.9562C9.06594 26.9142 9.21967 26.9566 9.52713 27.0415L13.4508 28.1241Z" fill="#00A63E"/>
<path d="M128.614 37.488C123.021 37.488 118.57 33.0219 118.57 27.1847C118.57 21.3867 123.021 16.9207 128.614 16.9207C134.168 16.9207 138.619 21.3867 138.619 27.1847C138.619 33.0219 134.168 37.488 128.614 37.488ZM128.614 34.158C132.38 34.158 135.309 31.1415 135.309 27.1847C135.309 23.228 132.38 20.2114 128.614 20.2114C124.809 20.2114 121.88 23.228 121.88 27.1847C121.88 31.1415 124.809 34.158 128.614 34.158Z" fill="#225438"/>
<path d="M115.343 17.3908C115.876 17.3908 116.142 17.7042 116.142 18.2526V36.156C116.142 42.2675 111.539 45.3232 106.556 45.3232C102.104 45.3232 97.8817 42.6592 97.3491 38.7024C97.311 38.1148 97.6534 37.8406 98.148 37.8406H99.8599C100.354 37.8406 100.583 38.0756 100.735 38.5849C101.191 40.3087 103.246 42.1499 106.556 42.1499C110.626 42.1499 112.871 39.8385 112.871 36.156V33.4529C111.349 35.8034 108.876 37.2921 105.642 37.2921C100.393 37.2921 96.0176 32.8261 96.0176 27.1064C96.0176 21.3867 100.393 16.9207 105.642 16.9207C108.876 16.9207 111.349 18.4093 112.871 20.7599V18.2526C112.871 17.7042 113.175 17.3908 113.67 17.3908H115.343ZM106.099 34.0405C109.941 34.0405 112.871 31.024 112.871 27.1064C112.871 23.1496 109.941 20.1331 106.099 20.1331C102.257 20.1331 99.3273 23.1496 99.3273 27.1064C99.3273 31.024 102.257 34.0405 106.099 34.0405Z" fill="#225438"/>
<path d="M95.6031 17.1166C96.1357 17.0774 96.44 17.3908 96.44 17.9393V19.7805C96.44 20.2898 96.2117 20.6032 95.8694 20.6032C93.2063 20.7207 90.6955 22.2878 90.6955 26.5188V36.156C90.6955 36.7045 90.3911 37.0179 89.8966 37.0179H88.1847C87.652 37.0179 87.3857 36.7045 87.3857 36.156V18.2527C87.3857 17.7042 87.652 17.43 88.1847 17.43H89.8966C90.3911 17.43 90.6955 17.7042 90.6955 18.2527V20.3682C91.8368 18.2135 93.6248 17.3124 95.6031 17.1166Z" fill="#225438"/>
<path d="M76.9263 16.9207C81.1491 16.9207 84.3067 19.6238 84.3067 24.3641V36.156C84.3067 36.7045 84.0404 36.9787 83.5078 36.9787H81.8339C81.3393 36.9787 81.0349 36.7045 81.0349 36.156V34.9807C79.8176 36.6653 77.8013 37.488 75.4046 37.488C71.9426 37.488 68.709 35.4117 68.709 31.2199C68.709 27.028 71.9426 24.9517 75.4046 24.9517C77.8013 24.9517 79.8176 25.8136 81.0349 27.2239V24.4424C81.0349 21.3475 79.1328 20.1331 76.9263 20.1331C74.9481 20.1331 73.2361 21.0733 72.8937 22.9146C72.7416 23.3847 72.5133 23.6589 72.0187 23.6589H70.3448C69.8503 23.6589 69.5079 23.3847 69.5459 22.797C70.0025 19.232 72.9698 16.9207 76.9263 16.9207ZM76.3556 34.6282C79.0947 34.6282 81.0349 33.1786 81.0349 31.2199C81.0349 29.1435 79.0947 27.8115 76.3556 27.8115C73.3883 27.8115 72.0187 29.2611 72.0187 31.2199C72.0187 33.1786 73.3883 34.6282 76.3556 34.6282Z" fill="#225438"/>
<path d="M67.0194 30.4363C67.59 30.4363 67.8944 30.7889 67.6661 31.3766C66.3727 35.0199 62.8346 37.488 58.726 37.488C52.9434 37.488 48.6826 33.0219 48.6826 27.1847C48.6826 21.3867 52.9434 16.9207 58.726 16.9207C62.8346 16.9207 66.3346 19.3887 67.6661 23.0321C67.8944 23.5806 67.59 23.9723 67.0194 23.9723H65.1553C64.6988 23.9723 64.3944 23.7764 64.1662 23.3455C63.139 21.4259 61.1227 20.2506 58.726 20.2506C54.9217 20.2506 51.9924 23.2671 51.9924 27.1847C51.9924 31.1415 54.9217 34.158 58.726 34.158C61.1227 34.158 63.177 32.9436 64.1662 31.0631C64.3944 30.6322 64.6988 30.4363 65.1553 30.4363H67.0194Z" fill="#225438"/>
</svg>
