<svg width="143" height="46" viewBox="0 0 143 46" fill="none" xmlns="http://www.w3.org/2000/svg">
<path fill-rule="evenodd" clip-rule="evenodd" d="M36.2339 11.9463C36.2339 11.6225 36.2196 11.1718 36.1874 10.657C36.165 10.2995 36.5997 10.1193 36.8037 10.4095C39.0985 13.6732 40.4503 17.6835 40.4503 22.0211C40.4503 25.8105 39.4181 29.3484 37.6282 32.3577C37.3206 32.8749 36.715 33.1047 36.1447 32.9535L26.8749 30.4953C26.5728 30.4152 26.5134 29.9949 26.7754 29.8205C26.8524 29.7693 26.9289 29.7176 27.0052 29.6654C27.8613 29.0791 28.6725 28.4287 29.4322 27.7209C33.6094 23.8296 36.2339 18.2035 36.2339 11.9463Z" fill="#00A63E"/>
<path d="M13.6193 19.3203C13.5429 19.0024 13.5047 18.8435 13.5032 18.6747C13.5018 18.5338 13.5255 18.3678 13.5661 18.2332C13.6148 18.072 13.6877 17.9451 13.8335 17.6913C17.202 11.8293 23.5765 7.62118 30.6342 7.62118C31.6892 7.62119 32.7234 7.70868 33.7309 7.87646C33.9816 7.91821 34.1069 7.93909 34.2221 8.01009C34.3166 8.06833 34.4127 8.16856 34.468 8.26662C34.5354 8.38619 34.5538 8.51413 34.5906 8.77002C34.7612 9.95555 34.8343 11.2474 34.8343 11.9463C34.8343 19.2567 30.7601 25.9654 25.0173 29.4293C24.7699 29.5785 24.6462 29.6531 24.4884 29.7026C24.3568 29.7438 24.1939 29.7672 24.0565 29.7647C23.8915 29.7618 23.7369 29.7208 23.4276 29.6387L17.5422 28.0776C16.836 27.8903 16.483 27.7967 16.196 27.6052C15.9422 27.4359 15.7268 27.212 15.5648 26.949C15.3816 26.6517 15.294 26.2873 15.1188 25.5583L13.6193 19.3203Z" fill="#00A63E"/>
<path fill-rule="evenodd" clip-rule="evenodd" d="M21.2007 2.1976C25.1725 2.19759 28.8616 3.43549 31.9269 5.55808C32.2206 5.76148 32.0486 6.22528 31.6951 6.20684C31.3437 6.18851 30.99 6.17923 30.6343 6.17923C23.4071 6.17925 17.047 10.0028 13.3574 15.7924C13.1867 16.0604 12.78 15.9973 12.7034 15.6867L10.484 6.6896C10.3402 6.10655 10.5604 5.48843 11.0566 5.17091C14.0018 3.28622 17.4763 2.19761 21.2007 2.1976Z" fill="#00A63E"/>
<path fill-rule="evenodd" clip-rule="evenodd" d="M3.09956 33.0485C2.97762 32.5799 2.91665 32.3456 2.92825 32.1175C2.93852 31.9158 2.98986 31.7185 3.07893 31.5385C3.17959 31.335 3.34617 31.1635 3.67931 30.8204L6.55152 27.8627C6.77659 27.6309 6.88912 27.515 7.00145 27.4967C7.09942 27.4807 7.19937 27.5083 7.27646 27.5726C7.36484 27.6463 7.40603 27.8046 7.48841 28.1212L8.73318 32.9049C8.77891 33.0806 8.80177 33.1685 8.79742 33.254C8.79357 33.3297 8.77432 33.4037 8.74092 33.4712C8.70317 33.5475 8.6407 33.6118 8.51577 33.7404L5.07199 37.2868C4.84692 37.5185 4.73438 37.6344 4.62206 37.6527C4.52409 37.6687 4.42413 37.6411 4.34705 37.5769C4.25867 37.5032 4.21748 37.3449 4.1351 37.0282L3.09956 33.0485Z" fill="#D8E9D2"/>
<path fill-rule="evenodd" clip-rule="evenodd" d="M12.416 39.8171C12.0828 40.1601 11.9163 40.3317 11.7187 40.4353C11.5439 40.5271 11.3523 40.5799 11.1564 40.5905C10.9349 40.6024 10.7074 40.5397 10.2523 40.4141L6.27009 39.3153C5.96263 39.2304 5.80891 39.188 5.73734 39.097C5.67491 39.0176 5.64813 38.9147 5.66365 38.8138C5.68144 38.6981 5.79398 38.5823 6.01905 38.3505L9.46295 34.804C9.58788 34.6754 9.65035 34.6111 9.72444 34.5722C9.78999 34.5378 9.86184 34.518 9.93531 34.514C10.0184 34.5095 10.1037 34.5331 10.2743 34.5802L15.0372 35.8945C15.3447 35.9793 15.4984 36.0217 15.57 36.1128C15.6324 36.1921 15.6592 36.2951 15.6436 36.396C15.6258 36.5116 15.5133 36.6275 15.2882 36.8593L12.416 39.8171Z" fill="#00A63E"/>
<path fill-rule="evenodd" clip-rule="evenodd" d="M13.4508 28.1242C13.9059 28.2498 14.1334 28.3126 14.3194 28.4369C14.484 28.547 14.6242 28.6914 14.7311 28.8608C14.8518 29.0523 14.9128 29.2867 15.0347 29.7553L16.0781 33.7652C16.1605 34.0818 16.2017 34.2401 16.1609 34.3494C16.1254 34.4448 16.0522 34.5202 15.9596 34.5568C15.8534 34.5987 15.6997 34.5563 15.3923 34.4715L10.688 33.1736C10.5173 33.1265 10.432 33.1029 10.3623 33.0563C10.3006 33.015 10.248 32.9609 10.2079 32.8974C10.1626 32.8255 10.1398 32.7377 10.094 32.5619L8.84128 27.7479C8.75889 27.4312 8.71769 27.2729 8.75844 27.1636C8.79399 27.0682 8.86716 26.9929 8.95977 26.9563C9.06594 26.9143 9.21967 26.9567 9.52713 27.0416L13.4508 28.1242Z" fill="#00A63E"/>
<path d="M128.614 37.4879C123.021 37.4879 118.57 33.0219 118.57 27.1847C118.57 21.3867 123.021 16.9206 128.614 16.9206C134.168 16.9206 138.619 21.3867 138.619 27.1847C138.619 33.0219 134.168 37.4879 128.614 37.4879ZM128.614 34.158C132.38 34.158 135.309 31.1415 135.309 27.1847C135.309 23.2279 132.38 20.2114 128.614 20.2114C124.809 20.2114 121.88 23.2279 121.88 27.1847C121.88 31.1415 124.809 34.158 128.614 34.158Z" fill="#D8E9D2"/>
<path d="M115.343 17.3907C115.876 17.3907 116.142 17.7041 116.142 18.2526V36.156C116.142 42.2674 111.539 45.3231 106.556 45.3231C102.104 45.3231 97.8817 42.6592 97.3491 38.7024C97.311 38.1148 97.6534 37.8405 98.148 37.8405H99.8599C100.354 37.8405 100.583 38.0756 100.735 38.5849C101.191 40.3086 103.246 42.1499 106.556 42.1499C110.626 42.1499 112.871 39.8385 112.871 36.156V33.4528C111.349 35.8034 108.876 37.2921 105.642 37.2921C100.393 37.2921 96.0176 32.826 96.0176 27.1063C96.0176 21.3867 100.393 16.9206 105.642 16.9206C108.876 16.9206 111.349 18.4093 112.871 20.7598V18.2526C112.871 17.7041 113.175 17.3907 113.67 17.3907H115.343ZM106.099 34.0405C109.941 34.0405 112.871 31.0239 112.871 27.1063C112.871 23.1496 109.941 20.133 106.099 20.133C102.257 20.133 99.3273 23.1496 99.3273 27.1063C99.3273 31.0239 102.257 34.0405 106.099 34.0405Z" fill="#D8E9D2"/>
<path d="M95.6031 17.1165C96.1357 17.0773 96.44 17.3907 96.44 17.9392V19.7805C96.44 20.2897 96.2117 20.6031 95.8694 20.6031C93.2063 20.7207 90.6955 22.2877 90.6955 26.5187V36.156C90.6955 36.7044 90.3911 37.0178 89.8966 37.0178H88.1847C87.652 37.0178 87.3857 36.7044 87.3857 36.156V18.2526C87.3857 17.7041 87.652 17.4299 88.1847 17.4299H89.8966C90.3911 17.4299 90.6955 17.7041 90.6955 18.2526V20.3681C91.8368 18.2134 93.6248 17.3124 95.6031 17.1165Z" fill="#D8E9D2"/>
<path d="M76.9263 16.9206C81.1491 16.9206 84.3067 19.6237 84.3067 24.364V36.156C84.3067 36.7044 84.0404 36.9787 83.5078 36.9787H81.8339C81.3393 36.9787 81.0349 36.7044 81.0349 36.156V34.9807C79.8176 36.6653 77.8013 37.4879 75.4046 37.4879C71.9426 37.4879 68.709 35.4116 68.709 31.2198C68.709 27.028 71.9426 24.9517 75.4046 24.9517C77.8013 24.9517 79.8176 25.8135 81.0349 27.2239V24.4424C81.0349 21.3475 79.1328 20.133 76.9263 20.133C74.9481 20.133 73.2361 21.0733 72.8937 22.9145C72.7416 23.3846 72.5133 23.6589 72.0187 23.6589H70.3448C69.8503 23.6589 69.5079 23.3846 69.5459 22.797C70.0025 19.232 72.9698 16.9206 76.9263 16.9206ZM76.3556 34.6281C79.0947 34.6281 81.0349 33.1786 81.0349 31.2198C81.0349 29.1435 79.0947 27.8115 76.3556 27.8115C73.3883 27.8115 72.0187 29.261 72.0187 31.2198C72.0187 33.1786 73.3883 34.6281 76.3556 34.6281Z" fill="#D8E9D2"/>
<path d="M67.0194 30.4363C67.59 30.4363 67.8944 30.7889 67.6661 31.3765C66.3727 35.0199 62.8346 37.4879 58.726 37.4879C52.9434 37.4879 48.6826 33.0219 48.6826 27.1847C48.6826 21.3867 52.9434 16.9206 58.726 16.9206C62.8346 16.9206 66.3346 19.3887 67.6661 23.032C67.8944 23.5805 67.59 23.9723 67.0194 23.9723H65.1553C64.6988 23.9723 64.3944 23.7764 64.1662 23.3455C63.139 21.4258 61.1227 20.2506 58.726 20.2506C54.9217 20.2506 51.9924 23.2671 51.9924 27.1847C51.9924 31.1415 54.9217 34.158 58.726 34.158C61.1227 34.158 63.177 32.9435 64.1662 31.0631C64.3944 30.6322 64.6988 30.4363 65.1553 30.4363H67.0194Z" fill="#D8E9D2"/>
</svg>
