<svg width="42" height="44" viewBox="0 0 42 44" fill="none" xmlns="http://www.w3.org/2000/svg">
<path fill-rule="evenodd" clip-rule="evenodd" d="M36.2336 11.7378C36.2336 11.414 36.2194 10.9633 36.1871 10.4485C36.1647 10.091 36.5994 9.91082 36.8034 10.201C39.0983 13.4647 40.45 17.475 40.4501 21.8126C40.4501 25.602 39.4178 29.1399 37.6279 32.1492C37.3203 32.6664 36.7148 32.8962 36.1444 32.745L26.8746 30.2868C26.5726 30.2067 26.5132 29.7864 26.7752 29.6121C26.8521 29.5609 26.9287 29.5092 27.0049 29.457C27.861 28.8706 28.6722 28.2202 29.432 27.5124C33.6092 23.6211 36.2336 17.9951 36.2336 11.7378Z" fill="#00A63E"/>
<path d="M13.6188 19.1117C13.5424 18.7939 13.5042 18.635 13.5027 18.4662C13.5014 18.3253 13.525 18.1593 13.5656 18.0247C13.6143 17.8635 13.6872 17.7366 13.8331 17.4828C17.2015 11.6208 23.5761 7.41267 30.6338 7.41267C31.6887 7.41268 32.723 7.50017 33.7304 7.66795C33.9811 7.7097 34.1064 7.73058 34.2217 7.80158C34.3161 7.85982 34.4122 7.96005 34.4675 8.05811C34.5349 8.17768 34.5533 8.30562 34.5901 8.5615C34.7607 9.74704 34.8338 11.0389 34.8338 11.7378C34.8338 19.0482 30.7596 25.7569 25.0168 29.2208C24.7694 29.37 24.6457 29.4446 24.4879 29.4941C24.3563 29.5353 24.1935 29.5587 24.056 29.5562C23.891 29.5533 23.7364 29.5122 23.4271 29.4302L17.5417 27.8691C16.8356 27.6818 16.4825 27.5882 16.1955 27.3967C15.9417 27.2273 15.7264 27.0035 15.5643 26.7405C15.3811 26.4432 15.2935 26.0788 15.1183 25.3498L13.6188 19.1117Z" fill="#00A63E"/>
<path fill-rule="evenodd" clip-rule="evenodd" d="M21.2 1.98907C25.1718 1.98907 28.8609 3.22697 31.9261 5.34955C32.2199 5.55295 32.0479 6.01676 31.6943 5.99831C31.343 5.97998 30.9893 5.9707 30.6335 5.9707C23.4063 5.97072 17.0463 9.79423 13.3567 15.5839C13.1859 15.8519 12.7793 15.7888 12.7027 15.4782L10.4832 6.48108C10.3394 5.89802 10.5597 5.27991 11.0559 4.96239C14.001 3.07769 17.4756 1.98908 21.2 1.98907Z" fill="#00A63E"/>
<path fill-rule="evenodd" clip-rule="evenodd" d="M3.09907 32.84C2.97713 32.3714 2.91616 32.137 2.92777 31.909C2.93803 31.7073 2.98937 31.51 3.07844 31.33C3.17911 31.1265 3.34568 30.955 3.67883 30.6119L6.55103 27.6542C6.7761 27.4224 6.88864 27.3065 7.00096 27.2882C7.09893 27.2722 7.19888 27.2998 7.27597 27.3641C7.36435 27.4378 7.40554 27.5961 7.48793 27.9127L8.73269 32.6964C8.77842 32.8721 8.80128 32.96 8.79693 33.0455C8.79308 33.1212 8.77383 33.1951 8.74043 33.2626C8.70268 33.3389 8.64021 33.4033 8.51528 33.5319L5.0715 37.0782C4.84643 37.31 4.7339 37.4259 4.62157 37.4442C4.5236 37.4602 4.42365 37.4326 4.34656 37.3683C4.25818 37.2946 4.21699 37.1363 4.13461 36.8197L3.09907 32.84Z" fill="#225438"/>
<path fill-rule="evenodd" clip-rule="evenodd" d="M12.4155 39.6084C12.0823 39.9515 11.9158 40.123 11.7182 40.2267C11.5434 40.3184 11.3518 40.3713 11.1559 40.3819C10.9344 40.3938 10.7069 40.331 10.2518 40.2055L6.2696 39.1066C5.96215 39.0218 5.80842 38.9794 5.73685 38.8884C5.67443 38.809 5.64764 38.7061 5.66316 38.6052C5.68095 38.4895 5.79349 38.3736 6.01856 38.1419L9.46246 34.5954C9.58739 34.4668 9.64986 34.4024 9.72395 34.3636C9.78951 34.3292 9.86135 34.3093 9.93482 34.3054C10.0179 34.3009 10.1032 34.3244 10.2739 34.3715L15.0367 35.6859C15.3442 35.7707 15.4979 35.8131 15.5695 35.9041C15.6319 35.9835 15.6587 36.0864 15.6432 36.1873C15.6254 36.303 15.5128 36.4189 15.2878 36.6506L12.4155 39.6084Z" fill="#00A63E"/>
<path fill-rule="evenodd" clip-rule="evenodd" d="M13.4498 27.9156C13.9049 28.0412 14.1325 28.104 14.3184 28.2283C14.483 28.3384 14.6232 28.4828 14.7301 28.6522C14.8508 28.8437 14.9118 29.0781 15.0338 29.5467L16.0771 33.5566C16.1595 33.8732 16.2007 34.0315 16.16 34.1408C16.1244 34.2362 16.0512 34.3116 15.9586 34.3482C15.8525 34.3901 15.6987 34.3477 15.3913 34.2629L10.687 32.965C10.5164 32.9179 10.431 32.8943 10.3613 32.8477C10.2996 32.8064 10.247 32.7523 10.2069 32.6887C10.1616 32.6169 10.1388 32.5291 10.093 32.3533L8.8403 27.5393C8.75791 27.2226 8.71671 27.0643 8.75747 26.955C8.79301 26.8596 8.86618 26.7843 8.95879 26.7477C9.06496 26.7057 9.21869 26.7481 9.52616 26.833L13.4498 27.9156Z" fill="#00A63E"/>
</svg>
