<svg xmlns="http://www.w3.org/2000/svg" viewBox="0 0 16 16" fill="#000000" id="Money--Streamline-Phosphor" height="16" width="16"><desc>Money Streamline Icon: https://streamlinehq.com</desc><path d="M8 5.5a2.5 2.5 0 1 0 2.5 2.5 2.5 2.5 0 0 0 -2.5 -2.5Zm0 4a1.5 1.5 0 1 1 1.5 -1.5 1.5 1.5 0 0 1 -1.5 1.5Zm7 -6H1a0.5 0.5 0 0 0 -0.5 0.5v8a0.5 0.5 0 0 0 0.5 0.5h14a0.5 0.5 0 0 0 0.5 -0.5V4a0.5 0.5 0 0 0 -0.5 -0.5Zm-2.896875 8H3.896875A3.54875 3.54875 0 0 0 1.5 9.103125v-2.20625A3.54875 3.54875 0 0 0 3.896875 4.5h8.20625A3.54875 3.54875 0 0 0 14.5 6.896875v2.20625A3.54875 3.54875 0 0 0 12.103125 11.5ZM14.5 5.835625A2.550625 2.550625 0 0 1 13.164375 4.5H14.5ZM2.835625 4.5A2.550625 2.550625 0 0 1 1.5 5.835625V4.5ZM1.5 10.164375A2.550625 2.550625 0 0 1 2.835625 11.5H1.5ZM13.164375 11.5A2.550625 2.550625 0 0 1 14.5 10.164375V11.5Z" stroke-width="0.0625"></path></svg>