<svg xmlns="http://www.w3.org/2000/svg" fill="none" viewBox="0 0 14 14" id="Bill-Dollar-2--Streamline-Flex" height="14" width="14">
    <g id="bill-dollar-2--currency-billing-payment-finance-cash-bill-money-accounting-dollar">
        <path id="Intersect" stroke="currentColor" stroke-linecap="round" stroke-linejoin="round" d="M1.06298 10.0102c0.11369 0.4874 0.53654 0.8582 1.03703 0.8582H11.9c0.5005 0 0.9229 -0.371 1.0409 -0.8574 0.1508 -0.62209 0.3091 -1.19065 0.3091 -3.01096 0 -1.82031 -0.1583 -2.38886 -0.3091 -3.011 -0.118 -0.4864 -0.5404 -0.85733 -1.0409 -0.85733l-9.79999 0c-0.50049 0 -0.92334 0.37073 -1.03703 0.85814C0.911 4.64146 0.75 5.23545 0.75 7.00004s0.161 2.35859 0.31298 3.01016Z" stroke-width="1"></path>
        <path id="Vector 6" stroke="currentColor" stroke-linecap="round" stroke-linejoin="round" d="m2.93018 6.99048 0.60858 -0.00782" stroke-width="1"></path>
        <path id="Vector 7" stroke="currentColor" stroke-linecap="round" stroke-linejoin="round" d="m10.4614 6.99048 0.6086 -0.00782" stroke-width="1"></path>
        <path id="Vector" stroke="currentColor" stroke-linecap="round" stroke-linejoin="round" d="M8.19665 5.69537s-0.44985 -0.50146 -1.17948 -0.43879c-0.72962 0.06267 -1.08132 0.51092 -1.08132 0.96041 0 1.311 2.2608 0.40246 2.2608 1.74684 0 0.69309 -1.49968 1.18232 -2.39318 0.36693m1.30311 -3.73701v0.65741m0 3.49768v0.65741" stroke-width="1"></path>
    </g>
</svg>