<svg xmlns="http://www.w3.org/2000/svg" fill="none" viewBox="0 0 14 14" id="Shopping-Cart-1--Streamline-Flex" height="14" width="14">
    <g id="shopping-cart-1--shopping-cart-checkout">
        <path id="Vector" stroke="currentColor" stroke-linecap="round" stroke-linejoin="round" d="M0.5 0.5h0.82467c0.92802 0 1.73414 0.63838 1.94679 1.54171l0.61916 2.63017" stroke-width="1"></path>
        <path id="Vector_2" stroke="currentColor" stroke-linecap="round" stroke-linejoin="round" d="M13.4963 3.99873c-0.1428 1.58208 -0.5875 4.06779 -0.9528 4.92468 -0.1671 0.39213 -0.4836 0.6904 -0.8977 0.79754C11.1283 9.85484 10.2309 10 8.7719 10c-1.45896 0 -2.35642 -0.14516 -2.87391 -0.27905 -0.41409 -0.10714 -0.7287 -0.40686 -0.88692 -0.80265C4.58954 7.86384 3.80363 4.86423 3.5 3h9.0383c0.5547 0 1.0076 0.44866 0.958 0.99873Z" stroke-width="1"></path>
        <path id="Vector_3" stroke="currentColor" stroke-linecap="round" stroke-linejoin="round" d="M5.625 13.5c0.61809 0 1.11915 -0.5011 1.11915 -1.1191 0 -0.6181 -0.50106 -1.1192 -1.11915 -1.1192 -0.61808 0 -1.11914 0.5011 -1.11914 1.1192 0 0.618 0.50106 1.1191 1.11914 1.1191Z" stroke-width="1"></path>
        <path id="Vector_4" stroke="currentColor" stroke-linecap="round" stroke-linejoin="round" d="M11.875 13.5c0.6181 0 1.1191 -0.5011 1.1191 -1.1191 0 -0.6181 -0.501 -1.1192 -1.1191 -1.1192s-1.1191 0.5011 -1.1191 1.1192c0 0.618 0.501 1.1191 1.1191 1.1191Z" stroke-width="1"></path>
    </g>
</svg>