<svg xmlns="http://www.w3.org/2000/svg" width="14" height="14" fill="none"><g stroke="#000" stroke-linecap="round" stroke-linejoin="round"><path d="M8.5 1.313h4.75M8.5 4.688h4.75M8.5 9.313h4.75M8.5 12.688h4.75M.83 4.411c.06.554.506 1 1.06 1.061.41.046.833.086 1.264.086.43 0 .853-.04 1.264-.086.554-.061 1-.507 1.059-1.061.044-.41.08-.829.08-1.257 0-.428-.036-.848-.08-1.257-.06-.554-.505-1-1.059-1.062A11.386 11.386 0 0 0 3.154.75c-.43 0-.853.04-1.265.085C1.336.897.89 1.343.831 1.897.787 2.306.75 2.726.75 3.154c0 .428.037.848.08 1.257ZM.83 12.103c.06.555.506 1 1.06 1.062.41.046.833.085 1.264.085.43 0 .853-.04 1.264-.085.554-.062 1-.507 1.059-1.062.044-.409.08-.829.08-1.257 0-.428-.036-.848-.08-1.257-.06-.554-.505-1-1.059-1.061a11.384 11.384 0 0 0-1.264-.086c-.43 0-.853.04-1.265.086-.553.061-.999.507-1.058 1.061-.044.41-.081.83-.081 1.257 0 .428.037.848.08 1.257Z"/></g></svg>